<svg aria-hidden="true" style="position: absolute; width: 0; height: 0; overflow: hidden;" version="1.1" xmlns="http://www.w3.org/2000/svg" xmlns:xlink="http://www.w3.org/1999/xlink">
<defs>
<symbol id="icon-linux" viewBox="0 0 32 32">
<path fill="#686766" style="fill: var(--color1, #686766)" d="M9.229 11.285c0 1.538-0.799 10.376-0.799 11.364 0 1.538-0.651 3.418-1.115 2.734s-1.859-3.247-1.673-6.665c0.186-3.418 2.463-6.563 2.937-7.434 0.558-1.026 0.651-0.956 0.651 0z"></path>
<path fill="#4d4948" style="fill: var(--color2, #4d4948)" d="M14.413 28.501v1.977l-2.649 1.521-0.085-0.989h-1.197l0.513-0.989-0.94-0.305 2.563-0.913v-1.141h1.794z"></path>
<path fill="#686766" style="fill: var(--color1, #686766)" d="M22.375 11.285c0 1.538 0.8 10.376 0.8 11.364 0 1.538 0.65 3.418 1.115 2.734s1.859-3.247 1.673-6.665c-0.186-3.418-2.463-6.563-2.936-7.434-0.558-1.026-0.651-0.956-0.651 0z"></path>
<path fill="#4d4948" style="fill: var(--color2, #4d4948)" d="M17.191 28.501v1.977l2.649 1.521 0.085-0.989h1.196l-0.513-0.989 0.94-0.305-2.563-0.913v-1.141h-1.795z"></path>
<path fill="#fff" style="fill: var(--color3, #fff)" d="M21.79 12.737c-1.453-4.614-0.854-5.042-5.81-4.443-4.956-0.598-4.358-0.171-5.81 4.443-0.924 2.935-2.53 7.989-1.078 11.921 0.213 0.258 0.449 0.497 0.71 0.717 0.544 0.457 1.963 1.973 2.134 2.315 0.435 0.87 3.247 1.196 3.247 0.085 0-0.689 0.187-0.449 0.62-0.449s0.62-0.24 0.62 0.449c0 1.11 2.812 0.784 3.247-0.085 0.171-0.342 1.59-1.857 2.134-2.315 0.452-0.381 0.829-0.818 1.14-1.314 0.711-3.505-0.288-8.575-1.153-11.325z"></path>
<path fill="#686766" style="fill: var(--color1, #686766)" d="M22.545 10.174c-1.196-2.051-1.475-2.467-2.174-6.033-0.511-2.605-2.043-4.141-4.569-4.141s-3.791 1.603-4.569 4.141c-1.064 3.469-1.32 4.238-2.174 6.033-1.145 2.405-1.709 5.127-1.62 8.79 0.060 2.462 0.536 4.342 1.652 5.695-1.452-3.933 0.154-8.986 1.078-11.921 1.453-4.614 0.855-5.042 5.81-4.443 4.956-0.598 4.358-0.171 5.81 4.443 0.865 2.749 1.864 7.82 1.153 11.325 0.81-1.291 1.171-2.979 1.222-5.098 0.089-3.663-0.278-6.49-1.62-8.79z"></path>
<path fill="#322726" style="fill: var(--color4, #322726)" d="M20.402 3.571c0 0 1.367 0.418 2.734 1.785 0.304 0.304-0.645 0.342-2.97 0.375-1.11 0.016-2.309-0.223-1.283-1.248 0.341-1.025 0.949-1.747 1.519-0.912z"></path>
<path fill="#f5c631" style="fill: var(--color5, #f5c631)" d="M19.483 8.038c-0.899-0.274-2.563-1.026-3.503-1.026s-2.629 0.68-3.503 1.026c-0.999 0.394-0.598 0.769 0.257 1.111s3.247 0.427 3.247 0.427 2.393-0.085 3.247-0.427c0.855-0.342 1.365-0.773 0.256-1.111z"></path>
<path fill="#f39d7b" style="fill: var(--color6, #f39d7b)" d="M11.781 4.473c0 0 0.228-0.804 0.607-1.025s-0.19 0.748 2.127 2.826c0.266 0.166-1.861-0.444-2.734-1.801z"></path>
<path fill="#322726" style="fill: var(--color4, #322726)" opacity="0.11" d="M25.962 18.719c-0.165-3.026-1.965-5.834-2.706-7.044-0.199-0.524-0.433-1.024-0.711-1.501-0.99-1.698-1.353-2.28-1.844-4.451 1.932-0.032 2.714-0.087 2.435-0.367-1.367-1.367-2.734-1.785-2.734-1.785-0.081-0.118-0.162-0.202-0.243-0.261-0.656-2.096-2.114-3.31-4.357-3.31-0.017 0-0.034 0.002-0.051 0.002v27.322c0.017 0.001 0.033 0.003 0.051 0.003 0.432 0 0.62-0.24 0.62 0.449 0 0.376 0.326 0.584 0.769 0.665v2.037l2.649 1.522 0.085-0.989h1.196l-0.513-0.989 0.94-0.305-2.563-0.913v-0.582c0.321-0.135 0.576-0.317 0.683-0.533 0.171-0.342 1.59-1.857 2.134-2.315 0.452-0.381 0.829-0.818 1.14-1.314 0.106-0.169 0.204-0.346 0.294-0.528 0.175 1.27 0.674 2.405 1.051 1.85 0.465-0.684 1.859-3.247 1.673-6.665z"></path>
</symbol>
<symbol id="icon-kubernetes" viewBox="0 0 32 32">
<path fill="#fac546" style="fill: var(--color7, #fac546)" d="M28.040 14.24h-1.64c-0.16-2.16-1.040-4.12-2.36-5.68l1.16-1.16c0.32-0.32 0.36-0.76 0.12-1l-0.24-0.24c-0.24-0.24-0.72-0.2-1 0.12l-1.16 1.16c-1.56-1.32-3.52-2.2-5.68-2.36v-1.64c0-0.44-0.28-0.8-0.64-0.8h-0.32c-0.36 0-0.64 0.36-0.64 0.8v1.64c-2.16 0.16-4.12 1.040-5.68 2.36l-1.16-1.16c-0.32-0.32-0.76-0.36-1-0.12l-0.24 0.24c-0.24 0.24-0.2 0.72 0.12 1l1.16 1.16c-1.32 1.56-2.2 3.52-2.36 5.68h-1.64c-0.44 0-0.8 0.28-0.8 0.64v0.32c0 0.36 0.36 0.64 0.8 0.64h1.64c0.16 2.16 1 4.16 2.32 5.72l-1.16 1.16c-0.32 0.32-0.36 0.76-0.12 1l0.24 0.24c0.24 0.24 0.72 0.2 1-0.12l1.16-1.16c1.56 1.32 3.52 2.2 5.68 2.36v1.64c0 0.44 0.28 0.8 0.64 0.8h0.32c0.36 0 0.64-0.36 0.64-0.8v-1.64c2.16-0.16 4.12-1.040 5.68-2.36l1.16 1.16c0.32 0.32 0.76 0.36 1 0.12l0.24-0.24c0.24-0.24 0.2-0.72-0.12-1l-1.16-1.16c1.36-1.56 2.2-3.56 2.4-5.72h1.64c0.44 0 0.8-0.28 0.8-0.64v-0.32c0-0.32-0.36-0.64-0.8-0.64zM24 14.24h-4.88c-0.040-0.2-0.12-0.36-0.2-0.52l3.44-3.44c0.88 1.12 1.48 2.48 1.64 3.96zM21.2 9.16l-3.44 3.44c-0.16-0.080-0.36-0.16-0.52-0.2v-4.88c1.48 0.12 2.84 0.72 3.96 1.64zM15.64 7.52v4.88c-0.2 0.040-0.36 0.12-0.52 0.2l-3.44-3.44c1.080-0.92 2.44-1.52 3.96-1.64zM10.52 10.28l3.44 3.44c-0.080 0.16-0.16 0.36-0.2 0.52h-4.88c0.16-1.48 0.72-2.84 1.64-3.96zM8.88 15.84h4.88c0.040 0.2 0.12 0.36 0.2 0.52l-3.44 3.44c-0.92-1.080-1.48-2.44-1.64-3.96zM11.64 20.96l3.44-3.44c0.16 0.080 0.36 0.16 0.52 0.2v4.88c-1.48-0.16-2.84-0.72-3.96-1.64zM17.24 22.6v-4.84c0.2-0.040 0.36-0.12 0.52-0.2l3.44 3.44c-1.12 0.88-2.48 1.44-3.96 1.6zM22.32 19.84l-3.44-3.44c0.080-0.16 0.16-0.36 0.2-0.52h4.92c-0.16 1.48-0.76 2.84-1.68 3.96z"></path>
<path fill="#231c1c" style="fill: var(--color8, #231c1c)" d="M16.6 27.84h-0.32c-0.56 0-1.040-0.52-1.040-1.2v-1.28c-1.92-0.24-3.72-0.96-5.24-2.16l-0.88 0.88c-0.24 0.24-0.56 0.4-0.88 0.4-0.28 0-0.52-0.080-0.68-0.28l-0.32-0.2c-0.16-0.16-0.28-0.44-0.28-0.68 0-0.32 0.16-0.64 0.4-0.88l0.88-0.88c-1.2-1.52-1.96-3.32-2.16-5.24h-1.28c-0.68 0-1.2-0.48-1.2-1.040v-0.32c0-0.56 0.52-1.040 1.2-1.040h1.28c0.24-1.92 0.96-3.72 2.16-5.24l-0.88-0.88c-0.24-0.24-0.4-0.56-0.4-0.88 0-0.28 0.080-0.52 0.28-0.68l0.24-0.24c0.16-0.16 0.44-0.28 0.68-0.28 0.32 0 0.64 0.16 0.88 0.4l0.88 0.88c1.52-1.2 3.32-1.96 5.24-2.16v-1.4c0-0.68 0.48-1.2 1.040-1.2h0.32c0.56 0 1.040 0.52 1.040 1.2v1.28c1.92 0.24 3.72 0.96 5.24 2.16l0.88-0.88c0.2-0.2 0.48-0.36 0.76-0.4 0.32-0.040 0.6 0.080 0.8 0.28l0.24 0.24c0.2 0.2 0.32 0.52 0.28 0.8s-0.16 0.56-0.4 0.76l-0.88 0.88c1.2 1.52 1.96 3.32 2.16 5.24h1.28c0.68 0 1.2 0.48 1.2 1.040v0.36c0 0.56-0.52 1.040-1.2 1.040h-1.28c-0.24 1.92-0.96 3.72-2.16 5.24l0.88 0.88c0.24 0.24 0.4 0.56 0.4 0.88 0 0.28-0.080 0.52-0.28 0.68l-0.24 0.24c-0.2 0.2-0.52 0.32-0.8 0.28s-0.56-0.16-0.76-0.4l-0.8-0.84c-1.52 1.2-3.32 1.96-5.24 2.16v1.28c0 0.68-0.48 1.2-1.040 1.2zM9.96 22.28c0.080 0 0.2 0.040 0.24 0.080 1.56 1.32 3.44 2.080 5.44 2.24 0.2 0 0.36 0.2 0.36 0.4v1.64c0 0.24 0.12 0.4 0.24 0.4h0.32c0.12 0 0.24-0.16 0.24-0.4v-1.64c0-0.2 0.16-0.4 0.36-0.4 2.040-0.16 3.92-0.96 5.44-2.24 0.16-0.12 0.4-0.12 0.56 0.040l1.16 1.16c0.080 0.080 0.2 0.16 0.28 0.16 0.040 0 0.12 0 0.16-0.040l0.24-0.24c0.040-0.040 0.040-0.080 0.040-0.12 0-0.12-0.040-0.24-0.16-0.32l-1.16-1.16c-0.16-0.16-0.16-0.4-0.040-0.56 1.32-1.56 2.080-3.44 2.24-5.44 0-0.2 0.2-0.36 0.4-0.36h1.64c0.24 0 0.4-0.12 0.4-0.24v-0.32c0-0.12-0.16-0.24-0.4-0.24h-1.56c-0.2 0-0.4-0.16-0.4-0.36-0.16-2.040-0.96-3.92-2.24-5.44-0.12-0.16-0.12-0.4 0.040-0.56l1.16-1.16c0.080-0.080 0.16-0.2 0.16-0.28 0-0.040 0-0.12-0.040-0.16l-0.28-0.24c-0.040-0.040-0.12-0.040-0.16-0.040-0.12 0-0.2 0.080-0.28 0.16l-1.16 1.12c-0.16 0.16-0.4 0.16-0.56 0.040-1.56-1.32-3.44-2.080-5.44-2.24-0.2 0-0.36-0.2-0.36-0.4v-1.68c0-0.24-0.12-0.4-0.24-0.4h-0.32c-0.12 0-0.24 0.16-0.24 0.4v1.64c0 0.2-0.16 0.4-0.36 0.4-2.040 0.16-3.92 0.96-5.44 2.24-0.16 0.12-0.4 0.12-0.56-0.040l-1.16-1.16c-0.12-0.040-0.24-0.12-0.36-0.12-0.040 0-0.080 0-0.12 0.040l-0.24 0.24c-0.040 0.040-0.040 0.080-0.040 0.12 0 0.12 0.040 0.24 0.16 0.32l1.16 1.16c0.16 0.16 0.16 0.4 0.040 0.56-1.32 1.56-2.080 3.44-2.24 5.44 0 0.2-0.2 0.36-0.4 0.36h-1.64c-0.24 0-0.4 0.12-0.4 0.24v0.32c0 0.12 0.16 0.24 0.4 0.24h1.64c0.2 0 0.4 0.16 0.4 0.36 0.16 2.040 0.96 3.92 2.24 5.44 0.12 0.16 0.12 0.4-0.040 0.56l-1.16 1.16c-0.080 0.080-0.16 0.2-0.16 0.32 0 0.040 0 0.080 0.040 0.12l0.24 0.24c0.040 0.040 0.080 0.040 0.12 0.040 0.12 0 0.24-0.040 0.32-0.16l1.16-1.16c0.080-0.040 0.2-0.080 0.32-0.080zM17.24 23c-0.080 0-0.2-0.040-0.28-0.12s-0.12-0.2-0.12-0.28v-4.84c0-0.16 0.12-0.32 0.28-0.4 0.16-0.040 0.32-0.12 0.44-0.2 0.16-0.080 0.36-0.040 0.48 0.080l3.44 3.44c0.080 0.080 0.12 0.2 0.12 0.32s-0.040 0.2-0.16 0.28c-1.2 0.96-2.64 1.56-4.2 1.72zM17.64 18.040v4.12c1.080-0.16 2.080-0.6 2.96-1.24l-2.92-2.92c-0.040 0-0.040 0-0.040 0.040zM15.64 23h-0.040c-1.52-0.16-3-0.76-4.2-1.72-0.080-0.080-0.16-0.16-0.16-0.28s0.040-0.24 0.12-0.32l3.44-3.44c0.12-0.12 0.32-0.16 0.48-0.080s0.28 0.12 0.44 0.2c0.16 0.040 0.28 0.2 0.28 0.4v4.88c0 0.12-0.040 0.24-0.12 0.28-0.080 0.080-0.16 0.080-0.24 0.080zM12.24 20.92c0.88 0.64 1.88 1.040 2.96 1.24v-4.12h-0.040l-2.92 2.88zM22.32 20.24c-0.12 0-0.2-0.040-0.28-0.12l-3.44-3.44c-0.12-0.12-0.16-0.32-0.080-0.48s0.12-0.28 0.2-0.44c0.040-0.16 0.2-0.28 0.4-0.28h4.88c0.12 0 0.24 0.040 0.28 0.12 0.080 0.080 0.12 0.2 0.12 0.32-0.16 1.52-0.76 3-1.72 4.2-0.12 0.040-0.2 0.12-0.36 0.12 0.040 0 0 0 0 0zM19.36 16.32l2.92 2.92c0.64-0.88 1.040-1.92 1.24-2.96h-4.12s-0.040 0-0.040 0.040zM10.52 20.24c-0.12 0-0.24-0.080-0.32-0.16-0.96-1.2-1.56-2.64-1.72-4.2 0-0.12 0.040-0.24 0.12-0.32s0.2-0.12 0.28-0.12h4.88c0.16 0 0.32 0.12 0.4 0.28 0.040 0.16 0.12 0.32 0.2 0.44 0.080 0.16 0.040 0.36-0.080 0.48l-3.48 3.48c-0.080 0.080-0.16 0.12-0.28 0.12zM9.32 16.24c0.16 1.080 0.6 2.080 1.24 2.96l2.92-2.92s0-0.040-0.040-0.040h-4.12zM24 14.64h-4.88c-0.16 0-0.32-0.12-0.4-0.28-0.040-0.16-0.12-0.32-0.2-0.44-0.080-0.16-0.040-0.36 0.080-0.48l3.44-3.44c0.080-0.080 0.2-0.12 0.32-0.12s0.2 0.040 0.28 0.16c0.96 1.2 1.56 2.64 1.72 4.2 0 0.12-0.040 0.24-0.12 0.32-0.040 0.040-0.16 0.080-0.24 0.080zM19.4 13.84h4.12c-0.16-1.080-0.6-2.080-1.24-2.96l-2.92 2.92c0 0.040 0.040 0.040 0.040 0.040zM13.76 14.64h-4.88c-0.12 0-0.24-0.040-0.28-0.12-0.080-0.080-0.12-0.2-0.12-0.32 0.16-1.52 0.76-3 1.72-4.2 0.080-0.080 0.16-0.16 0.28-0.16s0.24 0.040 0.32 0.12l3.44 3.44c0.12 0.12 0.16 0.32 0.080 0.48s-0.12 0.28-0.2 0.44c-0.040 0.24-0.2 0.32-0.36 0.32zM9.32 13.84h4.12s0-0.040 0.040-0.040l-2.92-2.92c-0.64 0.88-1.040 1.92-1.24 2.96zM15.080 13c-0.12 0-0.2-0.040-0.28-0.12l-3.44-3.44c-0.080-0.080-0.12-0.2-0.12-0.32s0.040-0.2 0.16-0.28c1.2-0.96 2.64-1.56 4.2-1.72 0.12 0 0.24 0.040 0.32 0.12s0.12 0.2 0.12 0.28v4.88c0 0.16-0.12 0.32-0.28 0.4-0.16 0.040-0.32 0.12-0.44 0.2-0.080-0.040-0.16 0-0.24 0zM12.24 9.2l2.92 2.92s0.040 0 0.040-0.040v-4.12c-1.040 0.16-2.040 0.6-2.96 1.24zM17.76 13c-0.080 0-0.12 0-0.2-0.040-0.12-0.080-0.28-0.12-0.44-0.2-0.16-0.040-0.28-0.2-0.28-0.4v-4.84c0-0.12 0.040-0.24 0.12-0.28 0.080-0.080 0.2-0.12 0.32-0.12 1.52 0.16 3 0.76 4.2 1.72 0.080 0.080 0.16 0.16 0.16 0.28s-0.040 0.24-0.12 0.32l-3.44 3.44c-0.12 0.080-0.24 0.12-0.32 0.12zM17.64 12.080s0.040 0 0.040 0.040l2.92-2.92c-0.88-0.64-1.92-1.040-2.96-1.24v4.12z"></path>
</symbol>
<symbol id="icon-networking" viewBox="0 0 32 32">
<path fill="#4fd1d9" style="fill: var(--color9, #4fd1d9)" d="M16 1c-8.25 0-15 6.75-15 15s6.75 15 15 15 15-6.75 15-15-6.75-15-15-15zM26 24.1c-0.6-0.55-1.25-1.050-1.9-1.45 0.85-1.7 1.35-3.55 1.5-5.45h3.2c-0.2 2.6-1.2 5-2.8 6.9zM3.15 17.2h3.15c0.15 1.9 0.7 3.75 1.5 5.45-0.65 0.45-1.25 0.9-1.85 1.45-1.55-1.9-2.55-4.3-2.8-6.9zM6 7.9c0.6 0.55 1.2 1 1.85 1.45-0.9 1.8-1.4 3.75-1.55 5.75h-3.15c0.15-2.7 1.2-5.2 2.85-7.2zM14.95 4.8v4.8c-1.45-0.1-2.85-0.5-4.2-1.050 1.1-1.55 2.55-2.85 4.2-3.75zM14.95 11.7v3.4h-6.55c0.1-1.7 0.55-3.3 1.3-4.75 1.6 0.8 3.4 1.25 5.25 1.35zM14.95 17.2v3.1c-1.85 0.15-3.65 0.6-5.3 1.35-0.65-1.35-1.1-2.85-1.25-4.45h6.55zM14.95 22.4v4.85c-1.7-0.95-3.1-2.2-4.2-3.75 1.3-0.6 2.75-1 4.2-1.1zM17.050 27.2v-4.8c1.45 0.1 2.85 0.45 4.15 1.050-1.1 1.5-2.5 2.8-4.15 3.75zM17.050 20.3v-3.1h6.45c-0.15 1.55-0.6 3.050-1.25 4.4-1.6-0.75-3.35-1.2-5.2-1.3zM17.050 15.1v-3.4c1.85-0.1 3.6-0.6 5.25-1.35 0.7 1.45 1.15 3.050 1.25 4.7h-6.5zM17.050 9.6v-4.8c1.65 0.95 3.050 2.2 4.15 3.75-1.3 0.6-2.7 0.95-4.15 1.050zM22.25 6.5c-1-1.2-2.15-2.25-3.45-3.050 2.2 0.5 4.15 1.5 5.75 2.95-0.5 0.45-1 0.8-1.5 1.15-0.25-0.35-0.5-0.75-0.8-1.050zM9.7 6.5c-0.25 0.35-0.55 0.7-0.8 1.050-0.5-0.35-1-0.7-1.45-1.15 1.6-1.4 3.55-2.45 5.7-2.95-1.35 0.8-2.5 1.85-3.45 3.050zM8.9 24.5c0.2 0.3 0.4 0.6 0.65 0.85 1 1.25 2.2 2.35 3.55 3.2-2.15-0.5-4.1-1.5-5.7-2.95 0.5-0.4 1-0.75 1.5-1.1zM22.3 25.5c0.25-0.35 0.55-0.7 0.8-1.050 0.55 0.35 1.050 0.75 1.5 1.15-1.6 1.45-3.6 2.45-5.75 2.95 1.25-0.8 2.45-1.85 3.45-3.050zM25.65 15.1c-0.1-2-0.65-3.95-1.55-5.75 0.65-0.45 1.3-0.9 1.9-1.45 1.6 2 2.65 4.5 2.85 7.2h-3.2z"></path>
</symbol>
<symbol id="icon-leetcode" viewBox="0 0 32 32">
<path fill="#78b159" style="fill: var(--color10, #78b159)" d="M23.194 4.1c-0.443 0.443-0.559 0.746-0.647 0.915-0.587 1.125-1.293 1.49-2.471 0.312-0.116-0.116-3.633-3.793-4.214-4.46-0.38-0.436-0.961-0.569-1.408-0.233-0.338 0.254-3.587 2.909-4.476 4.006-0.688 0.849-0.711 1.897-0.070 2.539 0.29 0.29 0.646 0.399 1.023 0.514 0.491 0.15 1.567 0.060 2.196 0.689 1.007 1.007 0.48 2.599-0.815 3.93-1.331 1.295-2.923 1.822-3.93 0.815-0.629-0.629-0.539-1.705-0.689-2.196-0.115-0.377-0.224-0.732-0.514-1.023-0.641-0.641-1.689-0.617-2.539 0.070-1.098 0.889-3.752 4.138-4.006 4.476-0.337 0.447-0.203 1.028 0.233 1.408 0.667 0.581 4.344 4.099 4.46 4.214 1.177 1.177 0.813 1.884-0.312 2.471-0.169 0.088-0.471 0.204-0.915 0.647-0.602 0.602-0.975 1.434-0.975 2.353 0 1.838 1.49 3.328 3.328 3.328 0.919 0 1.751-0.372 2.353-0.975v0c0.443-0.443 0.559-0.746 0.647-0.915 0.587-1.125 1.293-1.49 2.471-0.312 0.116 0.116 3.633 3.793 4.214 4.46 0.38 0.436 0.961 0.569 1.408 0.233 0.338-0.254 3.587-2.909 4.476-4.006 0.688-0.849 0.711-1.897 0.070-2.539-0.29-0.29-0.646-0.399-1.023-0.514-0.491-0.15-1.567-0.060-2.196-0.689-1.007-1.007-0.48-2.599 0.815-3.93 1.331-1.295 2.923-1.822 3.93-0.815 0.629 0.629 0.539 1.705 0.689 2.196 0.115 0.377 0.224 0.732 0.514 1.023 0.641 0.641 1.689 0.617 2.539-0.070 1.098-0.889 3.752-4.138 4.006-4.476 0.337-0.447 0.203-1.028-0.233-1.408-0.667-0.581-4.344-4.099-4.46-4.214-1.177-1.177-0.813-1.884 0.312-2.471 0.169-0.088 0.471-0.204 0.915-0.647 0.602-0.602 0.975-1.434 0.975-2.353 0-1.838-1.49-3.328-3.328-3.328-0.919 0-1.751 0.373-2.353 0.975v0z"></path>
</symbol>
<symbol id="icon-rust" viewBox="0 0 32 32">
<path fill="#a0041e" style="fill: var(--color11, #a0041e)" d="M6.187 18.344c0.060 0.568-0.483 1.092-1.216 1.169-0.732 0.079-1.375-0.317-1.436-0.884s0.484-1.091 1.216-1.168c0.732-0.079 1.375 0.316 1.436 0.884zM8.042 20.759c0.111 0.727-1.561 2.261-2.29 2.372-0.060 0.010-0.13 0.015-0.201 0.015-0.665 0-1.217-0.488-1.316-1.125l-0.001-0.008c-0.111-0.727 0.516-1.013 1.243-1.124s2.454-0.858 2.565-0.131zM9.627 22.629c0.154 0.72-1.447 3.491-2.167 3.644s-1.462 0.13-1.615-0.591c-0.154-0.72 0.272-1.5 0.992-1.654s2.636-2.119 2.79-1.399zM13.052 23.392c0.147 0.721-1.189 3.87-1.911 4.017s-1.279 0.401-1.426-0.32c-0.147-0.722 0.232-1.756 0.894-2.293 0.572-0.465 2.297-2.124 2.443-1.404z"></path>
<path fill="#a0041e" style="fill: var(--color11, #a0041e)" d="M3.489 16.772c0.54 0.636 1.049 1.093 0.412 1.631s-1.553 0.144-2.092-0.492c-0.538-0.636-1.99-3.040-1.355-3.578 0.637-0.539 2.497 1.804 3.035 2.439zM3.782 21.11c0.793 0.262 1.651 0.712 1.389 1.503s-1.18 0.881-1.972 0.62c-0.79-0.262-3.353-1.503-3.092-2.294s2.884-0.091 3.675 0.171zM4.861 25.139c0.804-0.225 1.695-0.252 1.919 0.55s-0.251 1.364-1.054 1.588c-0.802 0.223-3.86 0.646-4.084-0.156-0.223-0.804 2.416-1.76 3.219-1.982zM8.726 27.972c0.075-0.833 0.572-1.484 1.402-1.409s1.118 0.911 1.043 1.742c-0.076 0.83 0.131 3.166-1.524 3.57-0.811 0.196-0.996-3.076-0.92-3.903zM25.813 18.344c-0.060 0.568 0.483 1.092 1.215 1.169 0.732 0.079 1.375-0.317 1.436-0.884s-0.484-1.091-1.215-1.168c-0.732-0.079-1.375 0.316-1.436 0.884zM23.958 20.759c-0.111 0.727 1.562 2.261 2.289 2.372s1.408-0.389 1.519-1.117-0.516-1.013-1.243-1.124c-0.728-0.11-2.454-0.858-2.565-0.131zM22.373 22.629c-0.154 0.72 1.447 3.491 2.167 3.644s1.461 0.13 1.614-0.591c0.155-0.72-0.271-1.5-0.991-1.654s-2.636-2.119-2.79-1.399zM18.948 23.392c-0.148 0.721 1.189 3.87 1.91 4.017s1.278 0.401 1.426-0.32c0.146-0.722-0.233-1.756-0.895-2.293-0.571-0.465-2.295-2.124-2.441-1.404z"></path>
<path fill="#a0041e" style="fill: var(--color11, #a0041e)" d="M28.511 16.772c-0.54 0.636-1.049 1.093-0.413 1.631s1.553 0.144 2.092-0.492c0.538-0.636 1.99-3.040 1.354-3.578s-2.495 1.804-3.033 2.439zM28.218 21.11c-0.793 0.262-1.651 0.712-1.388 1.503 0.26 0.792 1.18 0.881 1.972 0.62 0.79-0.262 3.352-1.503 3.091-2.294s-2.884-0.091-3.675 0.171zM27.138 25.139c-0.804-0.225-1.694-0.252-1.918 0.55s0.251 1.364 1.053 1.588c0.802 0.223 3.86 0.646 4.084-0.157s-2.415-1.759-3.219-1.981zM23.274 27.972c-0.075-0.833-0.573-1.484-1.402-1.409-0.831 0.076-1.118 0.911-1.043 1.742s-0.131 3.166 1.524 3.57c0.811 0.196 0.996-3.076 0.92-3.903zM2.798 12.336c-0.083-0.181-0.131-0.392-0.131-0.615 0-0.833 0.676-1.509 1.509-1.509 0.611 0 1.136 0.363 1.374 0.884l0.004 0.009c0.339 0.76 2.356 4.988 1.596 5.328s-4.012-3.338-4.351-4.098z"></path>
<path fill="#a0041e" style="fill: var(--color11, #a0041e)" d="M3.55 10.697c1.085 2.628 7.414-2.97 7.825-5.583s-0.274-3.734-0.617-4 0.128 1.276-1.055 2.939c-0.936 1.317-6.903 4.83-6.153 6.644zM29.202 12.336c0.070-0.167 0.11-0.362 0.11-0.566 0-0.834-0.676-1.51-1.51-1.51-0.592 0-1.105 0.341-1.352 0.837l-0.004 0.009c-0.339 0.76-2.356 4.988-1.595 5.328s4.012-3.338 4.351-4.098z"></path>
<path fill="#a0041e" style="fill: var(--color11, #a0041e)" d="M28.451 10.697c-1.086 2.628-7.414-2.97-7.826-5.583-0.41-2.612 0.275-3.734 0.617-4s-0.128 1.276 1.055 2.939c0.937 1.317 6.903 4.83 6.154 6.644z"></path>
<path fill="#be1931" style="fill: var(--color12, #be1931)" d="M5.333 19.556c0-1.778 1.778-8.889 10.667-8.889s10.667 7.111 10.667 8.889c-4.444 2.667-4.776 6.222-10.667 6.222s-5.333-3.556-10.667-6.222zM3.843 10.865c-2.803 0.483-0.318-7.236 1.674-8.977s4.14-1.704 4.547-1.556-1.044 2.307-1.556 3.714c-0.26 0.714-2.731 6.485-4.665 6.819zM28.157 10.865c2.802 0.483 0.318-7.236-1.673-8.977s-4.139-1.704-4.547-1.556c-0.408 0.148 1.044 2.307 1.556 3.714 0.26 0.714 2.73 6.485 4.664 6.819z"></path>
<path fill="#a0041e" style="fill: var(--color11, #a0041e)" d="M15.14 10.788c0.298 1.19-0.040 1.412-0.755 1.59s-1.535 0.247-1.832-0.943c-0.298-1.19 0.040-2.3 0.755-2.479s1.534 0.641 1.832 1.832zM19.447 11.435c-0.298 1.191-1.118 1.122-1.832 0.943s-1.052-0.4-0.755-1.59c0.298-1.191 1.118-2.011 1.833-1.832s1.052 1.288 0.754 2.479z"></path>
<path fill="#292f33" style="fill: var(--color13, #292f33)" d="M14.222 8.444c0 0.736-0.597 1.333-1.333 1.333s-1.333-0.597-1.333-1.333c0-0.736 0.597-1.333 1.333-1.333s1.333 0.597 1.333 1.333z"></path>
<path fill="#292f33" style="fill: var(--color13, #292f33)" d="M20.444 8.444c0 0.736-0.597 1.333-1.333 1.333s-1.333-0.597-1.333-1.333c0-0.736 0.597-1.333 1.333-1.333s1.333 0.597 1.333 1.333z"></path>
<path fill="#dd2e44" style="fill: var(--color14, #dd2e44)" d="M8.047 19.137c-0.124 0.21-2.714 0.651-2.047-0.65s2.172 0.442 2.047 0.65z"></path>
<path fill="#dd2e44" style="fill: var(--color14, #dd2e44)" d="M8.792 17.888c-0.194 0.2-2.834 0.348-1.708-1.248 1.124-1.594 1.986 0.962 1.708 1.248z"></path>
<path fill="#dd2e44" style="fill: var(--color14, #dd2e44)" d="M10.362 16.587c-0.336 0.205-3.085-0.445-1.251-1.717 1.664-1.152 1.694 1.445 1.251 1.717z"></path>
<path fill="#dd2e44" style="fill: var(--color14, #dd2e44)" d="M12.535 15.491c-0.896 0.266-3.003-1.157-0.783-1.903s1.679 1.637 0.783 1.903zM23.872 19.137c0.125 0.209 2.714 0.65 2.047-0.65s-2.172 0.442-2.047 0.65z"></path>
<path fill="#dd2e44" style="fill: var(--color14, #dd2e44)" d="M23.128 17.888c0.194 0.2 2.834 0.348 1.708-1.248-1.125-1.594-1.987 0.962-1.708 1.248z"></path>
<path fill="#dd2e44" style="fill: var(--color14, #dd2e44)" d="M21.558 16.587c0.336 0.205 3.085-0.445 1.25-1.717-1.664-1.152-1.694 1.445-1.25 1.717z"></path>
<path fill="#dd2e44" style="fill: var(--color14, #dd2e44)" d="M19.385 15.491c0.896 0.266 3.003-1.157 0.783-1.903-2.221-0.746-1.68 1.637-0.783 1.903z"></path>
<path fill="#a0041e" style="fill: var(--color11, #a0041e)" d="M23.866 14.444c0 0.368-1.946-2-7.866-2s-7.865 2.368-7.865 2 2.448-3.333 7.865-3.333c5.417 0 7.866 2.965 7.866 3.333z"></path>
<path fill="#dd2e44" style="fill: var(--color14, #dd2e44)" d="M9.594 21.718c0-0.368 1.584 2 6.406 2s6.407-2.368 6.407-2c0 0.368-1.995 3.333-6.407 3.333s-6.406-2.965-6.406-3.333z"></path>
</symbol>
<symbol id="icon-thinking-in-java" viewBox="0 0 32 32">
<path fill="#fff" style="fill: var(--color3, #fff)" d="M26.834 16.447c2.689 0.993 6.578 3.207 4.217 6.075-2.124 2.579-6.687 3.413-9.815 3.719-0.935 0.092-4.032 0.268-5.235 0.28-1.203-0.012-4.3-0.189-5.235-0.28-3.128-0.306-7.692-1.14-9.816-3.719-2.785-3.382 3.124-5.856 5.505-6.488z"></path>
<path fill="#211715" style="fill: var(--color15, #211715)" d="M29.091 17.745c1.341 0.791 3.101 2.223 2.228 3.968-0.375 0.75-1.041 1.358-1.721 1.832-0.635 0.44-1.362 0.826-2.134 1.123l-0.071 0.024c-1.592 0.617-3.285 0.968-4.973 1.191-1.395 0.184-2.801 0.261-4.206 0.332-0.705 0.036-1.411 0.071-2.117 0.082-0.663 0.011-1.329-0.034-1.991-0.067-1.4-0.068-2.804-0.137-4.196-0.306-1.688-0.206-3.379-0.534-4.982-1.113-1.48-0.534-3.054-1.341-3.983-2.661-0.36-0.512-0.593-1.134-0.469-1.756 0.119-0.597 0.487-1.102 0.912-1.522 1.005-0.991 2.354-1.645 3.658-2.143q0.43-0.164 0.868-0.304c0.273-0.087 0.156-0.519-0.119-0.431-1.384 0.442-2.768 1.045-3.943 1.907-1.060 0.778-2.094 1.933-1.803 3.349 0.156 0.76 0.666 1.41 1.214 1.936 0.601 0.564 1.29 1.043 2.042 1.415l0.050 0.022c1.601 0.801 3.366 1.248 5.125 1.542 1.248 0.208 2.757 0.367 4.288 0.441l0.094 0.004c1.436 0.083 2.867 0.158 4.305 0.099 1.459-0.060 2.925-0.123 4.378-0.277 1.729-0.184 3.459-0.476 5.117-1.010 1.623-0.523 3.276-1.296 4.423-2.598 0.616-0.699 1.050-1.565 0.877-2.516-0.158-0.867-0.789-1.584-1.45-2.126-0.35-0.286-0.741-0.559-1.151-0.801l-0.044-0.024c-0.248-0.146-0.473 0.24-0.225 0.386z"></path>
<path fill="#cfcfcf" style="fill: var(--color16, #cfcfcf)" d="M16.349 23.93c-1.306-0.202-3.092-0.741-4.382-0.628-1.357 0.12-2.397 1.083-3.8 1.104-1.433 0.022-3.152-0.758-3.513-2.207-0.398-1.597 1.599-2.256 2.812-2.131 1.486 0.154 2.479 0.827 3.671 1.667 0.258 0.191 0.647 0.195 0.944 0.213 1.368 0.081 2.778 0.148 4.133 0.154 1.464 0.006 3.057 0.006 4.517 0.015 1.108 0.007 3.24-0.286 2.863 1.471-0.316 1.479-1.889 1.35-3.152 1.151-1.434-0.226-4.069-0.807-4.092-0.811z"></path>
<path fill="#211715" style="fill: var(--color15, #211715)" d="M16.408 23.715c-0.808-0.126-1.602-0.327-2.407-0.471-0.787-0.141-1.608-0.26-2.403-0.115-0.777 0.142-1.47 0.536-2.206 0.801-0.338 0.134-0.729 0.224-1.138 0.251l-0.011 0.001c-0.042 0.002-0.091 0.003-0.141 0.003-0.301 0-0.594-0.034-0.875-0.099l0.026 0.005c-0.643-0.141-1.275-0.425-1.752-0.886-0.218-0.207-0.396-0.455-0.522-0.731l-0.006-0.015c-0.062-0.137-0.109-0.297-0.135-0.464l-0.001-0.011c-0.007-0.055-0.012-0.119-0.012-0.183v-0c0-0.063 0.004-0.125 0.013-0.186l-0.001 0.007c0.043-0.245 0.157-0.459 0.321-0.624l-0 0c0.178-0.179 0.389-0.325 0.624-0.428l0.013-0.005c0.396-0.182 0.859-0.288 1.346-0.288 0.075 0 0.149 0.002 0.222 0.007l-0.010-0.001c0.766 0.047 1.512 0.312 2.18 0.678 0.351 0.192 0.687 0.411 1.016 0.637 0.168 0.115 0.331 0.239 0.502 0.35 0.167 0.101 0.366 0.169 0.578 0.188l0.005 0c0.45 0.059 0.911 0.063 1.364 0.087q0.734 0.039 1.468 0.065c0.973 0.035 1.945 0.038 2.918 0.040q1.447 0.004 2.893 0.009c0.552 0.003 1.107-0.025 1.659-0.008 0.252 0.002 0.497 0.030 0.732 0.084l-0.023-0.004c0.055 0.013 0.11 0.027 0.163 0.044 0.026 0.008 0.052 0.017 0.078 0.026 0.013 0.005 0.025 0.009 0.038 0.014 0.039 0.015-0.012-0.006 0.011 0.005 0.052 0.024 0.095 0.046 0.136 0.070l-0.006-0.004c0.022 0.013 0.043 0.027 0.064 0.041 0.052 0.034-0.002-0.008 0.043 0.033 0.034 0.031 0.066 0.063 0.097 0.098 0.034 0.038-0.005-0.016 0.020 0.028 0.014 0.024 0.030 0.047 0.043 0.072 0.006 0.010 0.035 0.077 0.018 0.034 0.010 0.024 0.019 0.050 0.026 0.075s0.014 0.053 0.020 0.080c0.003 0.014 0.005 0.028 0.008 0.042 0.007 0.041 0-0.009 0.002 0.017 0.004 0.040 0.006 0.086 0.006 0.132 0 0.253-0.060 0.491-0.167 0.702l0.004-0.009c-0.247 0.489-0.747 0.676-1.273 0.715-0.605 0.045-1.198-0.051-1.788-0.152-1.183-0.202-2.357-0.452-3.53-0.705-0.084-0.018-0.167-0.039-0.251-0.054-0.017-0.004-0.036-0.007-0.055-0.007-0.103 0-0.19 0.068-0.219 0.161l-0 0.002c-0.005 0.017-0.008 0.037-0.008 0.058 0 0.102 0.068 0.189 0.162 0.216l0.002 0c0.33 0.060 0.658 0.142 0.986 0.211 0.669 0.141 1.339 0.279 2.010 0.406 0.525 0.117 1.185 0.223 1.856 0.294l0.081 0.007c0.606 0.050 1.283 0.036 1.819-0.288 0.553-0.335 0.858-1.016 0.815-1.655-0.013-0.277-0.12-0.526-0.29-0.719l0.001 0.001c-0.166-0.17-0.375-0.299-0.609-0.368l-0.010-0.003c-0.499-0.164-1.051-0.157-1.571-0.147-0.754 0.015-1.507 0.006-2.262 0.004-2.018-0.006-4.034-0.002-6.050-0.107-0.457-0.024-0.925-0.023-1.378-0.083-0.205-0.028-0.387-0.108-0.538-0.224l0.003 0.002c-0.177-0.124-0.354-0.247-0.532-0.368-0.68-0.457-1.399-0.864-2.193-1.085-0.374-0.116-0.805-0.183-1.251-0.183-0.281 0-0.557 0.027-0.823 0.078l0.027-0.004c-0.572 0.115-1.171 0.363-1.57 0.803-0.442 0.487-0.526 1.136-0.31 1.748 0.241 0.683 0.762 1.218 1.382 1.575 0.597 0.345 1.308 0.56 2.067 0.588l0.008 0c0.845 0.032 1.609-0.273 2.372-0.6 0.31-0.146 0.683-0.285 1.069-0.396l0.055-0.013c0.274-0.069 0.589-0.109 0.913-0.109 0.085 0 0.17 0.003 0.254 0.008l-0.011-0.001c0.853 0.040 1.693 0.234 2.526 0.408 0.384 0.080 0.768 0.16 1.156 0.22 0.016 0.004 0.035 0.007 0.055 0.007 0.103 0 0.19-0.068 0.22-0.161l0-0.002c0.005-0.018 0.008-0.038 0.008-0.059 0-0.102-0.068-0.189-0.162-0.216l-0.002-0z"></path>
<path fill="#211715" style="fill: var(--color15, #211715)" d="M5.901 22.878c0.201 0.242 0.441 0.444 0.712 0.598l0.013 0.007c0.273 0.145 0.594 0.238 0.935 0.257l0.006 0c0.123 0 0.223-0.1 0.223-0.223s-0.1-0.223-0.223-0.223v0c-0.271-0.018-0.521-0.092-0.744-0.211l0.010 0.005c-0.067-0.037-0.123-0.072-0.177-0.11l0.006 0.004q-0.017-0.012-0.035-0.025c0.001 0.001-0.046-0.034-0.029-0.021 0.019 0.014-0.024-0.020-0.028-0.023q-0.021-0.017-0.042-0.035c-0.113-0.098-0.214-0.202-0.308-0.312l-0.003-0.004c-0.041-0.040-0.096-0.065-0.158-0.065s-0.117 0.025-0.158 0.065l0-0c-0.039 0.041-0.064 0.097-0.064 0.158s0.024 0.117 0.064 0.158l-0-0z"></path>
<path fill="#211715" style="fill: var(--color15, #211715)" d="M8.296 23.724c0.012 0 0.026 0.001 0.041 0.001 0.113 0 0.222-0.015 0.325-0.044l-0.008 0.002c0.116-0.027 0.215-0.060 0.31-0.099l-0.013 0.005c0.056-0.018 0.102-0.054 0.133-0.101l0.001-0.001c0.019-0.032 0.030-0.071 0.030-0.113 0-0.082-0.044-0.153-0.11-0.192l-0.001-0.001c-0.032-0.020-0.070-0.031-0.112-0.031-0.021 0-0.042 0.003-0.062 0.009l0.002-0c-0.128 0.054-0.276 0.097-0.431 0.12l-0.010 0.001 0.059-0.008c-0.033 0.005-0.070 0.008-0.109 0.008-0.016 0-0.031-0-0.047-0.001l0.002 0c-0 0-0 0-0.001 0-0.123 0-0.223 0.1-0.223 0.223 0 0.062 0.025 0.118 0.066 0.158v0c0.042 0.038 0.097 0.063 0.158 0.065h0z"></path>
<path fill="#211715" style="fill: var(--color15, #211715)" d="M20.599 24.204c0.315 0.061 0.678 0.097 1.050 0.101l0.003 0c0.296-0.003 0.615-0.038 0.873-0.195 0.245-0.149 0.021-0.536-0.225-0.386-0.024 0.014-0.048 0.027-0.072 0.040q-0.036 0.016-0.006 0.003-0.020 0.008-0.041 0.015c-0.050 0.018-0.111 0.034-0.173 0.046l-0.008 0.001c-0.104 0.018-0.225 0.029-0.347 0.029-0.010 0-0.020-0-0.030-0l0.002 0c-0.323-0.004-0.635-0.035-0.94-0.090l0.034 0.005c-0.016-0.004-0.035-0.007-0.055-0.007-0.103 0-0.19 0.068-0.22 0.161l-0 0.002c-0.005 0.017-0.008 0.037-0.008 0.058 0 0.102 0.068 0.189 0.162 0.216l0.002 0z"></path>
<path fill="#fff" style="fill: var(--color3, #fff)" d="M8.26 19.486c-1.909-2.709-2.573-6.157-2.647-9.415-0.008-0.372-0.007-0.752 0.109-1.107 0.202-0.62 0.966-1.209 1.533-1.529 1.424-0.805 3.986-1.595 6.231-1.804 0.873-0.081 1.707-0.129 2.523-0.141 0.816 0.012 1.649 0.060 2.523 0.141 1.731 0.149 3.329 0.54 4.82 1.142l-0.111-0.040c1.030 0.413 2.371 0.974 2.909 2.012 0.303 0.586 0.317 1.278 0.248 1.934-0.396 3.758-1.082 7.804-4.099 10.422z"></path>
<path fill="#957f6e" style="fill: var(--color17, #957f6e)" d="M8.971 10.334c-0.21-0.090-0.383-0.179-0.55-0.277l0.022 0.012c0.948-1.354 4.531-1.59 5.983-1.659 1.626-0.077 3.539-0.063 5.441 0.21 0.76 0.109 3.571 0.815 3.741 1.786-1.379 0.556-2.976 0.947-4.643 1.098l-0.066 0.005q-1.26 0.117-2.523 0.119-1.261-0.003-2.523-0.119c-1.733-0.155-3.331-0.546-4.824-1.143l0.115 0.040c-0.052-0.020-0.112-0.045-0.175-0.072z"></path>
<path fill="#fff" style="fill: var(--color3, #fff)" d="M30.378 14.070c-0.256 1.617-1.636 2.962-2.946 3.747-0.837 0.502-3.657 1.989-3.893 2.076 0 0-0.051 0.019-0.137 0.051 0.766-0.963 1.357-2.091 1.804-3.29l0.082-0.034c0.943-0.391 2.099-1.065 2.51-2.083 0.383-0.948-0.679-2.068-1.702-1.276 0.121-0.708 0.205-1.413 0.258-2.097l0.074-0.019c0.894-0.235 1.929-0.235 2.721 0.158 0.683 0.338 1.185 0.967 1.26 1.987 0.006 0.074 0.009 0.161 0.009 0.248 0 0.188-0.015 0.373-0.045 0.553l0.003-0.020z"></path>
<path fill="#211715" style="fill: var(--color15, #211715)" d="M7.856 8.808c-0.169 0.129-0.278 0.33-0.278 0.557 0 0.007 0 0.014 0 0.021l-0-0.001c0.033 0.223 0.145 0.415 0.306 0.551l0.001 0.001c0.328 0.306 0.753 0.504 1.165 0.67 1.208 0.492 2.612 0.862 4.074 1.045l0.083 0.008c0.942 0.122 2.031 0.192 3.136 0.192 0.48 0 0.957-0.013 1.43-0.039l-0.066 0.003c1.468-0.072 2.929-0.259 4.347-0.655q0.586-0.163 1.16-0.37c0.334-0.108 0.618-0.227 0.888-0.368l-0.031 0.015c0.233-0.118 0.416-0.308 0.522-0.54l0.003-0.007c0.115-0.293 0.017-0.607-0.137-0.864-0.147-0.246-0.534-0.022-0.386 0.225 0.059 0.090 0.103 0.196 0.125 0.309l0.001 0.005c0.002 0.015 0.004 0.032 0.004 0.049 0 0.061-0.017 0.119-0.047 0.167l0.001-0.001c-0.093 0.136-0.222 0.241-0.372 0.305l-0.006 0.002c-0.184 0.091-0.41 0.183-0.643 0.262l-0.041 0.012q-0.471 0.169-0.951 0.309c-1.169 0.346-2.527 0.586-3.927 0.669l-0.051 0.002c-2.74 0.18-5.56 0.012-8.177-0.867-0.54-0.181-1.019-0.342-1.496-0.638-0.097-0.059-0.181-0.119-0.259-0.186l0.003 0.002c-0.072-0.058-0.133-0.126-0.18-0.204l-0.002-0.003c-0.007-0.012-0.015-0.027-0.022-0.042l-0.001-0.003c0.019 0.044-0.007-0.030-0.009-0.039-0.015-0.060 0.004 0.046-0.001-0.016-0-0.002-0-0.005-0-0.007 0-0.011 0-0.021 0.001-0.032l-0 0.001q-0.006 0.037-0.001 0.012c0.004-0.016 0.008-0.032 0.014-0.048-0.015 0.041 0.021-0.034 0.027-0.042 0.033-0.040 0.068-0.076 0.107-0.107l0.001-0.001c0.040-0.041 0.065-0.096 0.065-0.158s-0.025-0.117-0.065-0.158l0 0c-0.041-0.039-0.097-0.064-0.158-0.064s-0.117 0.024-0.158 0.064l0-0z"></path>
<path fill="#211715" style="fill: var(--color15, #211715)" d="M8.453 19.374c-0.826-1.187-1.48-2.568-1.886-4.052l-0.022-0.094c-0.376-1.344-0.623-2.899-0.686-4.502l-0.001-0.039c-0.016-0.206-0.025-0.447-0.025-0.69 0-0.178 0.005-0.356 0.015-0.532l-0.001 0.024c0.021-0.357 0.155-0.679 0.367-0.934l-0.002 0.003c0.42-0.508 0.993-0.864 1.577-1.152 1.326-0.652 2.788-1.068 4.236-1.342 0.701-0.134 1.545-0.237 2.402-0.286l0.054-0.002c0.457-0.033 0.99-0.052 1.527-0.052 0.367 0 0.731 0.009 1.094 0.026l-0.051-0.002c1.722 0.086 3.432 0.297 5.079 0.823 0.801 0.254 1.472 0.525 2.117 0.839l-0.092-0.041c0.582 0.281 1.167 0.623 1.575 1.135 0.474 0.594 0.521 1.367 0.453 2.095-0.064 0.683-0.15 1.366-0.25 2.045-0.204 1.378-0.491 2.751-0.972 4.062-0.47 1.281-1.143 2.498-2.068 3.508-0.237 0.258-0.483 0.497-0.74 0.722l-0.011 0.009c-0.217 0.189 0.1 0.504 0.316 0.316 1.063-0.946 1.92-2.1 2.51-3.399l0.026-0.064c0.595-1.306 0.965-2.698 1.219-4.107 0.129-0.716 0.229-1.436 0.315-2.159 0.091-0.767 0.219-1.558 0.033-2.32-0.352-1.442-1.837-2.116-3.087-2.624-1.488-0.612-3.211-1.035-5.012-1.188l-0.065-0.004c-0.723-0.079-1.561-0.124-2.41-0.124-0.090 0-0.179 0-0.268 0.002l0.014-0c-0.885 0.022-1.774 0.073-2.652 0.179-1.723 0.211-3.29 0.627-4.762 1.227l0.123-0.044c-0.616 0.248-1.235 0.525-1.775 0.916-0.314 0.219-0.585 0.47-0.817 0.753l-0.006 0.007c-0.234 0.295-0.39 0.663-0.43 1.064l-0.001 0.009c-0.016 0.188-0.025 0.407-0.025 0.628 0 0.211 0.008 0.419 0.025 0.626l-0.002-0.027q0.026 0.601 0.080 1.199c0.082 0.904 0.203 1.709 0.368 2.499l-0.024-0.14c0.317 1.548 0.833 3.067 1.613 4.446q0.287 0.508 0.623 0.985c0.041 0.066 0.113 0.109 0.195 0.109 0.041 0 0.079-0.011 0.112-0.029l-0.001 0.001c0.066-0.040 0.11-0.112 0.11-0.194 0-0.041-0.011-0.080-0.030-0.113l0.001 0.001z"></path>
<path fill="#211715" style="fill: var(--color15, #211715)" d="M8.648 10.165c0.006-0.008 0.012-0.016 0.018-0.024 0.021-0.028-0.020 0.024 0.003-0.003 0.013-0.016 0.026-0.032 0.040-0.047q0.048-0.055 0.101-0.106c0.061-0.060 0.126-0.115 0.195-0.165l0.005-0.003c0.163-0.117 0.349-0.226 0.544-0.316l0.021-0.009c0.398-0.181 0.866-0.335 1.352-0.44l0.047-0.008c0.855-0.192 1.859-0.328 2.887-0.38l0.043-0.002c0.636-0.044 1.378-0.069 2.125-0.069 0.671 0 1.338 0.020 1.999 0.060l-0.091-0.004c0.754 0.035 1.458 0.112 2.148 0.23l-0.102-0.014c0.467 0.088 0.857 0.187 1.238 0.306l-0.078-0.021c0.517 0.148 0.959 0.32 1.381 0.525l-0.050-0.022c0.213 0.104 0.395 0.214 0.566 0.339l-0.011-0.008c0.012 0.008 0.022 0.016 0.032 0.024l-0-0c0.016 0.013 0.032 0.026 0.048 0.040 0.035 0.030 0.069 0.062 0.102 0.095q0.042 0.044 0.081 0.091c0.016 0.020-0.006-0.008-0.008-0.009 0.007 0.009 0.014 0.019 0.020 0.029 0.011 0.017 0.022 0.033 0.032 0.051s0.018 0.034 0.027 0.051c0.020 0.037-0.010-0.034 0.003 0.006 0.010 0.029 0.020 0.064 0.028 0.1l0.001 0.005c0.028 0.095 0.114 0.164 0.217 0.164 0.021 0 0.041-0.003 0.060-0.008l-0.002 0c0.095-0.029 0.163-0.116 0.163-0.219 0-0.020-0.003-0.039-0.007-0.058l0 0.002c-0.074-0.39-0.433-0.672-0.748-0.871-0.388-0.236-0.836-0.443-1.307-0.597l-0.046-0.013c-0.351-0.128-0.799-0.257-1.256-0.36l-0.081-0.015c-0.482-0.103-1.065-0.185-1.658-0.23l-0.046-0.003c-0.798-0.072-1.725-0.114-2.663-0.114-0.647 0-1.29 0.020-1.927 0.058l0.088-0.004c-1.094 0.048-2.124 0.171-3.128 0.365l0.133-0.021c-0.585 0.109-1.099 0.259-1.591 0.453l0.058-0.020c-0.428 0.172-0.853 0.387-1.183 0.716-0.074 0.075-0.143 0.156-0.205 0.242l-0.004 0.006c-0.019 0.032-0.030 0.071-0.030 0.112 0 0.082 0.044 0.153 0.109 0.193l0.001 0.001c0.032 0.018 0.070 0.029 0.111 0.029 0.082 0 0.154-0.043 0.194-0.108l0.001-0.001z"></path>
<path fill="#211715" style="fill: var(--color15, #211715)" d="M26.488 11.361c0.86-0.224 1.867-0.246 2.651 0.188 0.389 0.212 0.69 0.542 0.862 0.94l0.005 0.013c0.123 0.31 0.195 0.669 0.195 1.045 0 0.216-0.024 0.426-0.068 0.628l0.004-0.019c-0.247 1.224-1.125 2.246-2.097 2.982-0.739 0.56-1.585 0.98-2.399 1.417-0.703 0.377-1.405 0.767-2.127 1.107-0.016 0.007-0.032 0.014-0.048 0.022-0.048 0.023 0.055-0.021 0.014-0.006-0.095 0.030-0.163 0.117-0.163 0.22 0 0.020 0.002 0.039 0.007 0.057l-0-0.002c0.028 0.095 0.114 0.164 0.216 0.164 0.021 0 0.041-0.003 0.060-0.008l-0.002 0c0.292-0.123 0.531-0.242 0.762-0.374l-0.035 0.018q0.643-0.331 1.281-0.673c0.442-0.236 0.884-0.474 1.322-0.717 0.459-0.247 0.843-0.485 1.21-0.742l-0.038 0.025c1.070-0.769 2.048-1.822 2.407-3.119 0.312-1.128 0.11-2.458-0.873-3.189-0.816-0.608-1.939-0.666-2.906-0.487-0.12 0.022-0.239 0.049-0.358 0.080-0.278 0.072-0.16 0.503 0.119 0.431z"></path>
<path fill="#211715" style="fill: var(--color15, #211715)" d="M26.21 13.454c0.28-0.212 0.624-0.318 0.937-0.159 0.263 0.14 0.451 0.393 0.499 0.692l0.001 0.005c0.054 0.362-0.146 0.708-0.36 0.989-0.249 0.312-0.54 0.577-0.868 0.791l-0.014 0.009c-0.338 0.228-0.725 0.437-1.132 0.608l-0.045 0.017c-0.095 0.030-0.162 0.117-0.162 0.22 0 0.019 0.002 0.038 0.007 0.056l-0-0.002c0.027 0.095 0.114 0.164 0.216 0.164 0.021 0 0.041-0.003 0.060-0.008l-0.002 0c0.871-0.363 1.737-0.85 2.316-1.615 0.272-0.359 0.486-0.795 0.427-1.255-0.055-0.434-0.302-0.802-0.652-1.019l-0.006-0.003c-0.465-0.278-1.027-0.192-1.448 0.126-0.065 0.041-0.108 0.113-0.108 0.195 0 0.040 0.010 0.078 0.029 0.111l-0.001-0.001c0.040 0.066 0.112 0.11 0.193 0.11 0.041 0 0.080-0.011 0.113-0.031l-0.001 0.001z"></path>
</symbol>
<symbol id="icon-cloud" viewBox="0 0 32 32">
<path fill="#fff" style="fill: var(--color3, #fff)" d="M25.712 14.578c0.003 0.009 0.006 0.016 0.009 0.025-0.003-0.006-0.006-0.016-0.009-0.025zM18.544 20.788c0-0.003-0.003-0.006-0.003-0.009 0 0.003 0.003 0.006 0.003 0.009zM26.084 15.875c0.003 0.012 0.006 0.028 0.009 0.041-0.003-0.012-0.006-0.025-0.009-0.041zM25.625 14.359c0.003 0.009 0.006 0.019 0.012 0.025-0.006-0.006-0.009-0.016-0.012-0.025zM25.984 15.434c0.003 0.009 0.006 0.022 0.009 0.031-0.003-0.009-0.006-0.019-0.009-0.031zM25.534 14.156c0.006 0.012 0.012 0.028 0.019 0.041-0.006-0.012-0.012-0.028-0.019-0.041zM25.788 14.775c0.003 0.012 0.009 0.025 0.012 0.037-0.003-0.009-0.009-0.022-0.012-0.037zM18.584 20.875c0-0.003-0.003-0.003-0.003-0.006 0 0.003 0 0.006 0.003 0.006zM19.7 20.516c-0.009 0.006-0.016 0.016-0.025 0.022 0.006-0.009 0.016-0.016 0.025-0.022zM25.928 15.219c0.003 0.012 0.006 0.022 0.009 0.034-0.003-0.009-0.006-0.022-0.009-0.034zM24.738 12.838v0zM19.491 20.731c-0.025 0.031-0.050 0.069-0.075 0.103 0.025-0.038 0.050-0.072 0.075-0.103zM25.119 13.384c0.003 0.006 0.009 0.012 0.012 0.019-0.003-0.003-0.006-0.009-0.012-0.019zM19.416 20.837v0zM24.997 13.194c0.009 0.016 0.019 0.031 0.031 0.044-0.012-0.012-0.022-0.028-0.031-0.044zM19.575 20.631c-0.009 0.012-0.022 0.022-0.031 0.034 0.009-0.009 0.022-0.022 0.031-0.034zM18.506 20.694c-0.003-0.006-0.003-0.009-0.006-0.016 0.003 0.006 0.006 0.009 0.006 0.016zM25.234 13.575c0.006 0.012 0.016 0.025 0.022 0.037-0.006-0.012-0.016-0.025-0.022-0.037zM19.172 21.322c-0.006 0.012-0.009 0.025-0.016 0.041 0.006-0.012 0.009-0.025 0.016-0.041zM25.334 13.756c0.006 0.012 0.016 0.028 0.022 0.041-0.006-0.016-0.016-0.028-0.022-0.041zM19.528 20.688c-0.012 0.012-0.022 0.028-0.034 0.041 0.012-0.016 0.022-0.028 0.034-0.041zM18.997 21.491v0zM21.863 21.953c-0.003-0.003-0.006-0.006-0.006-0.009 0 0.006 0.003 0.006 0.006 0.009zM19.756 20.469c-0.006 0.006-0.012 0.009-0.019 0.016 0.006-0.003 0.012-0.009 0.019-0.016zM19.6 20.606v0zM19.084 21.575c-0.016-0.012-0.031-0.028-0.047-0.044 0.016 0.016 0.031 0.028 0.047 0.044zM26.438 17.859l-0.169-0.119 0.256 0.178zM19.222 21.203c-0.009 0.019-0.016 0.038-0.025 0.056 0.009-0.019 0.016-0.038 0.025-0.056zM18.438 20.491c-0.003-0.009-0.006-0.016-0.006-0.025 0.003 0.006 0.006 0.016 0.006 0.025zM19.272 21.091c0.034-0.069 0.069-0.131 0.103-0.194-0.053 0.091-0.106 0.188-0.153 0.297 0.016-0.034 0.034-0.069 0.050-0.103zM24.606 12.678c0.012 0.016 0.022 0.028 0.034 0.044-0.009-0.016-0.022-0.031-0.034-0.044zM18.472 20.594c-0.003-0.006-0.006-0.012-0.006-0.022 0.003 0.009 0.003 0.016 0.006 0.022zM26.247 17.153c0 0.022 0.003 0.041 0.003 0.063 0-0.019-0.003-0.041-0.003-0.063zM19.831 20.422c-0.006 0.003-0.012 0.006-0.019 0.012 0.006-0.006 0.012-0.009 0.019-0.012zM26.122 16.075v0zM19.125 21.447c-0.003 0.006-0.006 0.016-0.006 0.022 0.003-0.006 0.006-0.016 0.006-0.022zM26.156 16.288c0.003 0.012 0.003 0.022 0.006 0.034-0.003-0.009-0.003-0.022-0.006-0.034zM26.231 16.938c0.003 0.022 0.003 0.047 0.006 0.069-0.003-0.022-0.006-0.044-0.006-0.069zM24.881 13.031c0.006 0.009 0.012 0.019 0.022 0.028-0.006-0.006-0.012-0.019-0.022-0.028zM19.894 20.384v0zM26.212 16.731c0.003 0.019 0.003 0.038 0.006 0.059-0.003-0.019-0.003-0.041-0.006-0.059z"></path>
<path fill="#e6e6e6" style="fill: var(--color18, #e6e6e6)" d="M25.706 20.153l0.45 0.2c0.387 0.172 0.672 0.572 0.872 1.222 0.25-0.222 0.528-0.597 0.684-1.225 0.334-1.331-1.175-2.419-1.191-2.431l-0.256-0.178-0.009-0.313c-0.003-0.072-0.006-0.141-0.009-0.209 0-0.022-0.003-0.044-0.003-0.063-0.003-0.050-0.006-0.097-0.009-0.147-0.003-0.022-0.003-0.047-0.006-0.069-0.003-0.050-0.009-0.1-0.012-0.147-0.003-0.019-0.003-0.038-0.006-0.059-0.006-0.069-0.016-0.134-0.022-0.2l-0.028-0.206c-0.003-0.012-0.003-0.022-0.006-0.034-0.009-0.056-0.016-0.113-0.025-0.166l-0.009-0.047-0.028-0.159c-0.003-0.012-0.006-0.028-0.009-0.041-0.012-0.066-0.025-0.128-0.041-0.194-0.016-0.072-0.034-0.144-0.050-0.216-0.003-0.009-0.006-0.022-0.009-0.031-0.016-0.063-0.031-0.122-0.050-0.181-0.003-0.012-0.006-0.022-0.009-0.034-0.041-0.137-0.081-0.272-0.128-0.403-0.003-0.012-0.009-0.025-0.012-0.037-0.022-0.059-0.041-0.116-0.063-0.172-0.003-0.009-0.006-0.016-0.009-0.025-0.025-0.066-0.050-0.128-0.078-0.194-0.003-0.009-0.006-0.019-0.012-0.025-0.022-0.053-0.047-0.109-0.072-0.162-0.006-0.012-0.012-0.028-0.019-0.041-0.028-0.059-0.056-0.122-0.084-0.181-0.031-0.059-0.063-0.122-0.094-0.181-0.006-0.012-0.016-0.028-0.022-0.041-0.025-0.047-0.053-0.094-0.078-0.141-0.006-0.012-0.016-0.025-0.022-0.037-0.034-0.056-0.066-0.113-0.103-0.169-0.003-0.006-0.009-0.012-0.012-0.019-0.031-0.050-0.063-0.097-0.094-0.147-0.009-0.016-0.019-0.031-0.031-0.044-0.031-0.044-0.063-0.091-0.094-0.134-0.006-0.009-0.012-0.019-0.022-0.028-0.038-0.053-0.075-0.103-0.116-0.156l-0.028-0.037c-0.031-0.041-0.063-0.081-0.094-0.119-0.012-0.016-0.022-0.028-0.034-0.044-0.041-0.050-0.084-0.1-0.125-0.15-0.556-0.634-1.113-1.012-1.425-1.194-0.309 0.181-0.866 0.559-1.425 1.194-1.113 1.269-1.712 2.916-1.778 4.9l-0.009 0.313-0.256 0.178c-0.012 0.009-1.525 1.097-1.188 2.428 0.009 0.041 0.022 0.078 0.031 0.116 0.003 0.009 0.006 0.016 0.006 0.025 0.009 0.028 0.016 0.056 0.025 0.084 0.003 0.006 0.006 0.012 0.006 0.022l0.028 0.084c0.003 0.006 0.003 0.009 0.006 0.016 0.009 0.028 0.022 0.056 0.031 0.084 0 0.003 0.003 0.006 0.003 0.009l0.038 0.084c0 0.003 0.003 0.003 0.003 0.006 0.012 0.028 0.025 0.056 0.041 0.084 0.028 0.056 0.059 0.109 0.087 0.159 0.091 0.147 0.184 0.266 0.278 0.363l0.047 0.047c0.016 0.016 0.031 0.028 0.047 0.044 0.012-0.034 0.022-0.072 0.034-0.106 0.003-0.006 0.006-0.016 0.006-0.022 0.009-0.028 0.019-0.056 0.031-0.084 0.006-0.012 0.009-0.028 0.016-0.041 0.009-0.022 0.016-0.044 0.025-0.066 0.006-0.019 0.016-0.038 0.025-0.056 0-0.003 0.003-0.003 0.003-0.006 0.047-0.109 0.1-0.209 0.153-0.297l0.003-0.003 0.038-0.056 0.003-0.003c0.025-0.038 0.050-0.072 0.075-0.103l0.003-0.003c0.009-0.012 0.022-0.028 0.034-0.041 0.006-0.006 0.012-0.012 0.016-0.019 0.009-0.012 0.022-0.025 0.031-0.034l0.025-0.025c0.016-0.016 0.028-0.031 0.044-0.044 0.009-0.009 0.019-0.019 0.031-0.028 0.009-0.006 0.016-0.016 0.025-0.022l0.038-0.028c0.006-0.006 0.012-0.009 0.019-0.016l0.056-0.038c0.006-0.003 0.012-0.006 0.019-0.012l0.047-0.028 0.019-0.009c0.022-0.012 0.041-0.022 0.063-0.031l0.45-0.2 0.3 0.391c0.059 0.075 0.119 0.153 0.181 0.231 0.297 0.378 0.616 0.772 0.847 1.038 0.031 0.034 0.059 0.066 0.084 0.097 0.012 0.012 0.022 0.025 0.034 0.038 0.003 0.003 0.006 0.006 0.006 0.009 0.012 0.012 0.022 0.025 0.031 0.034h2.331c0.259-0.275 0.772-0.906 1.188-1.447l0.3-0.4zM22.984 17.416c-0.975 0-1.766-0.794-1.766-1.766 0-0.975 0.794-1.766 1.766-1.766s1.766 0.794 1.766 1.766-0.791 1.766-1.766 1.766z"></path>
<path fill="#fff" style="fill: var(--color3, #fff)" d="M20.744 11.647c1.016-1.134 2.025-1.575 2.066-1.594l0.247-0.106 0.247 0.106c0.044 0.019 1.053 0.459 2.066 1.594 0.344 0.384 0.716 0.878 1.050 1.497-0.069-4.259-3.559-7.706-7.838-7.706-3.15 0-5.969 1.875-7.2 4.728 0.266 0.094 0.522 0.206 0.772 0.334 0.856 0.444 1.609 1.088 2.181 1.866 0.203 0.278 0.144 0.669-0.134 0.875-0.278 0.203-0.669 0.144-0.875-0.134-0.947-1.287-2.466-2.056-4.059-2.056-2.778 0-5.034 2.259-5.034 5.034 0 2.778 2.259 5.034 5.034 5.034h8.066c-0.053-0.147-0.103-0.3-0.144-0.469-0.441-1.747 0.859-3.075 1.431-3.559 0.159-2.706 1.234-4.45 2.125-5.444zM16.025 8.234c-1.031 0.591-1.544 1.394-1.55 1.403-0.059 0.094-0.162 0.147-0.266 0.147-0.056 0-0.116-0.016-0.166-0.047-0.147-0.091-0.191-0.284-0.097-0.431 0.025-0.037 0.603-0.944 1.769-1.612 1.075-0.616 2.869-1.138 5.312-0.128 0.159 0.066 0.234 0.25 0.169 0.409s-0.25 0.234-0.409 0.169c-1.772-0.734-3.375-0.703-4.762 0.091z"></path>
<path fill="#005bff" style="fill: var(--color19, #005bff)" d="M20.203 22.228c0.072-0.012 0.144-0.025 0.212-0.041-0.053-0.063-0.103-0.125-0.153-0.188-0.022 0.072-0.044 0.15-0.059 0.228z"></path>
<path fill="#005bff" style="fill: var(--color19, #005bff)" d="M25.853 22c0.053 0.181 0.097 0.387 0.125 0.578l0.084 0.644 0.641-0.109c0.069-0.012 1.684-0.309 2.225-2.459 0.441-1.747-0.859-3.075-1.431-3.559-0.028-0.475-0.084-0.919-0.163-1.338 0.225-0.797 0.341-1.628 0.341-2.478 0-2.428-0.947-4.713-2.663-6.428-1.719-1.719-4-2.662-6.428-2.662-3.722 0-7.047 2.259-8.428 5.675-0.294-0.041-0.591-0.063-0.884-0.063-3.466 0-6.284 2.819-6.284 6.284s2.819 6.284 6.284 6.284h8.844c0.613 0.613 1.259 0.734 1.303 0.741l0.637 0.106 0.084-0.641c0.016-0.116 0.038-0.234 0.066-0.35 0.019-0.078 0.038-0.156 0.059-0.228 0.050 0.063 0.103 0.125 0.153 0.188 0.328 0.4 0.669 0.788 0.863 0.931l0.166 0.122h3.228l0.166-0.122c0.219-0.163 0.641-0.659 1.012-1.116zM17.188 20.653c0.041 0.166 0.091 0.322 0.144 0.469h-8.066c-2.778 0-5.034-2.259-5.034-5.034 0-2.778 2.259-5.034 5.034-5.034 1.597 0 3.113 0.769 4.059 2.056 0.203 0.278 0.597 0.338 0.875 0.134s0.338-0.597 0.134-0.875c-0.572-0.778-1.325-1.422-2.181-1.866-0.25-0.128-0.506-0.241-0.772-0.334 1.231-2.856 4.050-4.731 7.2-4.731 4.278 0 7.769 3.447 7.841 7.709-0.334-0.619-0.706-1.116-1.050-1.497-1.016-1.134-2.025-1.575-2.066-1.594l-0.247-0.106-0.247 0.106c-0.044 0.019-1.053 0.459-2.066 1.594-0.891 0.994-1.966 2.738-2.125 5.447-0.575 0.481-1.875 1.809-1.434 3.556zM24.219 21.991h-2.325c-0.009-0.012-0.022-0.022-0.031-0.034-0.003-0.003-0.006-0.006-0.006-0.009-0.012-0.012-0.022-0.025-0.034-0.038-0.275-0.306-0.734-0.872-1.113-1.366l-0.3-0.391-0.45 0.2c-0.022 0.009-0.044 0.019-0.063 0.031l-0.019 0.009-0.047 0.028c-0.006 0.003-0.012 0.006-0.019 0.012l-0.056 0.038c-0.006 0.006-0.012 0.009-0.019 0.016l-0.038 0.028c-0.009 0.006-0.016 0.016-0.025 0.022-0.009 0.009-0.019 0.019-0.031 0.028-0.016 0.016-0.031 0.028-0.044 0.044l-0.025 0.025c-0.009 0.012-0.022 0.022-0.031 0.034-0.006 0.006-0.012 0.012-0.016 0.019-0.012 0.012-0.022 0.028-0.034 0.041l-0.003 0.003-0.075 0.103-0.003 0.003-0.038 0.056-0.003 0.003c-0.038 0.059-0.072 0.125-0.103 0.194-0.016 0.034-0.031 0.069-0.050 0.106 0 0.003-0.003 0.003-0.003 0.006-0.009 0.019-0.016 0.038-0.025 0.056-0.009 0.022-0.019 0.044-0.025 0.066-0.006 0.012-0.009 0.025-0.016 0.041-0.009 0.028-0.022 0.056-0.031 0.084-0.003 0.006-0.006 0.016-0.006 0.022-0.012 0.034-0.022 0.069-0.034 0.106-0.016-0.012-0.031-0.028-0.047-0.044l-0.047-0.047c-0.125-0.128-0.256-0.3-0.369-0.525-0.012-0.028-0.028-0.056-0.041-0.084 0-0.003-0.003-0.003-0.003-0.006l-0.038-0.084c0-0.003-0.003-0.006-0.003-0.009-0.012-0.028-0.022-0.056-0.031-0.084-0.003-0.006-0.003-0.009-0.006-0.016l-0.028-0.084c-0.003-0.006-0.006-0.012-0.006-0.022-0.009-0.028-0.019-0.056-0.025-0.084-0.003-0.009-0.006-0.016-0.006-0.025-0.009-0.038-0.022-0.075-0.031-0.116-0.334-1.331 1.175-2.419 1.188-2.428l0.256-0.178 0.009-0.313c0.066-1.984 0.663-3.631 1.778-4.9 0.559-0.634 1.116-1.012 1.425-1.194 0.309 0.181 0.866 0.559 1.425 1.194 0.044 0.050 0.084 0.1 0.125 0.15 0.012 0.016 0.022 0.028 0.034 0.044 0.031 0.041 0.063 0.078 0.094 0.119l0.028 0.037c0.041 0.050 0.078 0.103 0.116 0.156 0.006 0.009 0.012 0.019 0.022 0.028 0.031 0.044 0.063 0.088 0.094 0.134 0.009 0.016 0.019 0.031 0.031 0.044 0.031 0.047 0.063 0.097 0.094 0.147 0.003 0.006 0.009 0.012 0.012 0.019l0.103 0.169c0.006 0.012 0.016 0.025 0.022 0.037 0.028 0.047 0.053 0.094 0.078 0.141 0.006 0.012 0.016 0.028 0.022 0.041 0.031 0.059 0.063 0.119 0.094 0.181 0.028 0.059 0.059 0.119 0.084 0.181 0.006 0.012 0.012 0.028 0.019 0.041 0.025 0.053 0.047 0.106 0.072 0.162 0.003 0.009 0.006 0.019 0.012 0.025 0.028 0.063 0.053 0.128 0.078 0.194 0.003 0.009 0.006 0.016 0.009 0.025 0.022 0.056 0.044 0.116 0.063 0.172 0.003 0.012 0.009 0.025 0.012 0.037 0.047 0.131 0.087 0.269 0.128 0.403 0.003 0.012 0.006 0.022 0.009 0.034 0.016 0.059 0.034 0.122 0.050 0.181 0.003 0.009 0.006 0.022 0.009 0.031 0.034 0.134 0.066 0.272 0.091 0.409 0.003 0.012 0.006 0.028 0.009 0.041l0.028 0.159 0.009 0.047c0.009 0.056 0.019 0.109 0.025 0.166 0.003 0.012 0.003 0.022 0.006 0.034l0.028 0.206c0.009 0.066 0.016 0.134 0.022 0.2 0.003 0.019 0.003 0.038 0.006 0.059 0.003 0.050 0.009 0.097 0.012 0.147 0.003 0.022 0.003 0.047 0.006 0.069 0.003 0.050 0.006 0.097 0.009 0.147 0 0.022 0.003 0.041 0.003 0.063 0.003 0.069 0.006 0.141 0.009 0.209l0.009 0.313 0.172 0.119 0.084 0.059c0.016 0.009 1.525 1.097 1.191 2.431-0.159 0.628-0.434 1.003-0.684 1.225-0.2-0.65-0.488-1.050-0.872-1.222l-0.45-0.2-0.3 0.391c-0.416 0.55-0.931 1.181-1.191 1.456z"></path>
<path fill="#005bff" style="fill: var(--color19, #005bff)" d="M19.156 21.363c-0.009 0.028-0.022 0.056-0.031 0.084 0.012-0.028 0.022-0.056 0.031-0.084zM19.197 21.259c-0.009 0.022-0.019 0.044-0.025 0.066 0.009-0.025 0.016-0.047 0.025-0.066zM19.119 21.469c-0.012 0.034-0.022 0.069-0.034 0.106 0.012-0.038 0.022-0.072 0.034-0.106zM21.853 21.947c-0.012-0.012-0.022-0.025-0.034-0.038 0.012 0.012 0.025 0.025 0.034 0.038zM19.813 20.431v0zM19.734 20.484l-0.038 0.028c0.016-0.009 0.028-0.019 0.038-0.028zM19.675 20.534c-0.009 0.009-0.019 0.019-0.031 0.028 0.009-0.009 0.022-0.019 0.031-0.028zM19.875 20.394v0zM19.956 20.353c-0.022 0.009-0.044 0.019-0.063 0.031 0.022-0.012 0.044-0.022 0.063-0.031zM21.894 21.991c-0.009-0.012-0.022-0.022-0.031-0.034 0.009 0.009 0.022 0.022 0.031 0.034zM19.222 21.197c0 0.003-0.003 0.003-0.003 0.006 0.003-0.003 0.003-0.003 0.003-0.006zM19.6 20.606v0zM19.419 20.834l-0.003 0.003s0-0.003 0.003-0.003zM19.378 20.894l-0.003 0.003c0.003 0 0.003 0 0.003-0.003zM19.494 20.728v0zM19.544 20.666c-0.006 0.006-0.012 0.012-0.016 0.019 0.006-0.003 0.009-0.012 0.016-0.019zM25.553 14.197c0.025 0.053 0.047 0.106 0.072 0.162-0.022-0.053-0.047-0.109-0.072-0.162zM25.45 13.975c0.028 0.059 0.059 0.119 0.084 0.181-0.028-0.059-0.056-0.122-0.084-0.181zM25.938 15.253c0.016 0.059 0.034 0.122 0.050 0.181-0.019-0.059-0.034-0.119-0.050-0.181zM26.131 16.122c0.009 0.056 0.019 0.109 0.025 0.166-0.006-0.053-0.016-0.109-0.025-0.166zM25.8 14.816c0.047 0.131 0.087 0.269 0.128 0.403-0.041-0.137-0.081-0.272-0.128-0.403zM25.637 14.384c0.028 0.063 0.053 0.128 0.078 0.194-0.028-0.063-0.053-0.128-0.078-0.194zM26.163 16.325v0zM26.094 15.916v0zM18.622 20.959c0.113 0.222 0.241 0.394 0.369 0.525-0.094-0.097-0.191-0.216-0.278-0.363-0.031-0.050-0.059-0.103-0.091-0.163z"></path>
<path fill="#005bff" style="fill: var(--color19, #005bff)" d="M20.887 20.775c-0.063-0.078-0.122-0.156-0.181-0.231 0.378 0.491 0.837 1.059 1.113 1.366-0.028-0.028-0.056-0.063-0.084-0.097-0.231-0.266-0.55-0.656-0.847-1.038zM26.084 15.875c-0.028-0.137-0.059-0.275-0.091-0.409 0.019 0.072 0.034 0.144 0.050 0.216 0.016 0.066 0.028 0.131 0.041 0.194zM26.219 16.791c0.003 0.050 0.009 0.097 0.012 0.147-0.003-0.050-0.009-0.097-0.012-0.147zM26.191 16.531c0.009 0.066 0.016 0.134 0.022 0.2-0.006-0.066-0.016-0.134-0.022-0.2zM26.238 17.006c0.003 0.050 0.006 0.097 0.009 0.147-0.003-0.047-0.006-0.097-0.009-0.147zM26.25 17.219c0.003 0.069 0.006 0.141 0.009 0.209-0.003-0.072-0.006-0.141-0.009-0.209zM18.466 20.575c-0.009-0.028-0.019-0.056-0.025-0.084 0.006 0.028 0.016 0.056 0.025 0.084zM18.5 20.678l-0.028-0.084c0.009 0.031 0.019 0.059 0.028 0.084zM19.038 21.531v0zM18.431 20.466c-0.009-0.038-0.022-0.075-0.031-0.116 0.009 0.038 0.019 0.078 0.031 0.116zM18.622 20.959c-0.012-0.028-0.028-0.056-0.041-0.084 0.016 0.031 0.028 0.056 0.041 0.084zM24.481 12.528c0.044 0.050 0.084 0.1 0.125 0.15-0.041-0.050-0.081-0.1-0.125-0.15zM18.541 20.778c-0.012-0.028-0.022-0.056-0.031-0.084 0.009 0.028 0.019 0.056 0.031 0.084zM18.581 20.872v0zM24.644 12.719c0.031 0.041 0.063 0.078 0.094 0.119-0.031-0.037-0.063-0.078-0.094-0.119zM25.131 13.406v0zM25.025 13.241c0.031 0.047 0.063 0.097 0.094 0.147-0.031-0.050-0.063-0.1-0.094-0.147zM25.256 13.616c0.028 0.047 0.053 0.094 0.078 0.141-0.025-0.050-0.050-0.097-0.078-0.141zM24.766 12.875c0.041 0.050 0.078 0.103 0.116 0.156-0.038-0.050-0.075-0.103-0.116-0.156zM24.903 13.063c0.031 0.044 0.063 0.088 0.094 0.134-0.031-0.047-0.063-0.091-0.094-0.134z"></path>
<path fill="#fff" style="fill: var(--color3, #fff)" d="M22.984 14.506c-0.628 0-1.141 0.512-1.141 1.141s0.512 1.141 1.141 1.141 1.141-0.512 1.141-1.141-0.512-1.141-1.141-1.141z"></path>
<path fill="#06f3ff" style="fill: var(--color20, #06f3ff)" d="M22.984 13.881c-0.975 0-1.766 0.794-1.766 1.766 0 0.975 0.794 1.766 1.766 1.766s1.766-0.794 1.766-1.766-0.791-1.766-1.766-1.766zM22.984 16.791c-0.628 0-1.141-0.512-1.141-1.141s0.512-1.141 1.141-1.141 1.141 0.512 1.141 1.141-0.512 1.141-1.141 1.141zM22.156 23.841c-0.172 0-0.313 0.141-0.313 0.313v3.106c0 0.172 0.141 0.313 0.313 0.313s0.313-0.141 0.313-0.313v-3.106c0-0.172-0.141-0.313-0.313-0.313z"></path>
<path fill="#005bff" style="fill: var(--color19, #005bff)" d="M24.081 23.528c-0.344 0-0.625 0.281-0.625 0.625v0.9c0 0.344 0.281 0.625 0.625 0.625s0.625-0.281 0.625-0.625v-0.9c0-0.347-0.281-0.625-0.625-0.625zM21.197 7.972c0.066-0.159-0.009-0.344-0.169-0.409-2.444-1.009-4.238-0.487-5.313 0.128-1.166 0.669-1.744 1.575-1.769 1.612-0.091 0.147-0.047 0.338 0.097 0.431 0.053 0.031 0.109 0.047 0.166 0.047 0.103 0 0.206-0.053 0.266-0.147 0.006-0.009 0.519-0.813 1.55-1.403 1.384-0.794 2.988-0.825 4.762-0.094 0.159 0.072 0.344-0.006 0.409-0.166z"></path>
</symbol>
</defs>
</svg>
